# xmcd
#
# Track frame offsets: 
#        150
#        4050
#        20466
#        39354
#        68068
#        88385
#        107305
#        149522
#        165738
#        191241
#        218000
#        242187
#        266814
#        285243
#        315114
#
# Disc length: 4453 seconds
#
# Revision: 0
# Processed by: cddbd v1.5.2PL0 Copyright (c) Steve Scherf et al.
# Submitted via: ExactAudioCopy v1.3
#
DISCID=cb11630f
DTITLE=Various Artist - Burning Blues  vol. 03
DYEAR=2018
DGENRE=Blues
TTITLE0=Chick Willis - Intro
TTITLE1=Chick Willis - Short-Haired Woman
TTITLE2=Charles Hyde Band - Fool No More
TTITLE3=Arthur Miles and Ardy Blues Band - Whiskey-Headed Woman
TTITLE4=Altered Five Blues Band - If Your Heart Went Public
TTITLE5=Heather Newman - Dirty Blues
TTITLE6=Larry Miller - Cruel Old World
TTITLE7=Chuck Beattie - Never Get Rich
TTITLE8=Richard Bargel and Klaus Heuser - How Can I Go On?
TTITLE9=Hurts Like Hell - Don't Let Me Go
TTITLE10=Carolyn Wonderland - Open Eyes
TTITLE11=Chris Beard - Glad You're Gone
TTITLE12=Scott Ellison - You Made A Mess
TTITLE13=You Worry Me - Mighty Sam McClain
TTITLE14=Wendy Rich - Drivin' Rain
EXTD=
EXTT0=
EXTT1=
EXTT2=
EXTT3=
EXTT4=
EXTT5=
EXTT6=
EXTT7=
EXTT8=
EXTT9=
EXTT10=
EXTT11=
EXTT12=
EXTT13=
EXTT14=
PLAYORDER=
